<?xml version="1.0" encoding="UTF-8"?>
<svg width="226px" height="236px" viewBox="0 0 226 236" version="1.1" xmlns="http://www.w3.org/2000/svg" xmlns:xlink="http://www.w3.org/1999/xlink">
    <!-- Generator: Sketch 59.1 (86144) - https://sketch.com -->
    <title>moon</title>
    <desc>Created with Sketch.</desc>
    <g id="Page-1" stroke="none" stroke-width="1" fill="none" fill-rule="evenodd">
        <g id="Group-18" transform="translate(-401.000000, -208.000000)" fill-rule="nonzero">
            <g id="Group-17" transform="translate(401.000000, 208.000000)">
                <g id="moon">
                    <path d="M18.7667185,61.3163144 C18.7667185,61.3163144 97.1533609,195.412152 199.55906,195.749693 C216.057771,176.141468 226,150.853529 226,123.244709 C226,60.9359477 175.389587,10.4245399 112.957666,10.4245399 C73.5121906,10.4245399 38.7919036,30.5931846 18.5673941,61.156984 L18.7667185,61.3163144 Z" id="Path" fill="#142766"></path>
                    <path d="M109.83348,91.3197447 C104.085484,91.3197447 99.0890708,86.6254814 99.1895892,80.7630688 C99.2933353,74.7356217 104.425771,70.3267113 109.994863,70.5797949 C112.2699,70.671532 114.224477,68.8838119 114.353583,66.5825488 C114.552314,63.0218603 116.311388,59.9212401 118.884752,57.8214297 C112.049958,52.8754657 104.422543,48.9575098 96.2307499,46.2911424 C95.9540936,53.2129105 90.2388352,58.7590838 83.2495744,58.7590838 C76.0841758,58.7590838 70.2545661,52.9307845 70.2545661,45.7669965 C70.2545661,44.5578192 70.4242487,43.388287 70.7345649,42.2773006 C51.040785,42.2962012 32.972822,49.2525436 18.8384508,60.8303128 C6.93900152,78.7199601 0,100.191962 0,123.28665 C0,148.22576 8.09127507,171.272044 21.7834573,189.958282 C27.7744498,182.154179 37.5173631,177.922289 47.4050599,179.047566 C51.1952514,179.479053 54.6262508,177.334526 55.7573141,173.832844 C62.0623115,154.314058 80.0883149,141.199808 100.612525,141.199808 C115.310814,141.199808 128.907089,147.875868 137.915479,159.516332 C139.295072,161.298981 141.316969,162.353266 143.473505,162.520606 C149.483863,151.113403 152.890886,138.122237 152.890886,124.333098 C152.890886,112.587989 150.417578,101.422345 145.97125,91.3197447 L109.83348,91.3197447 Z" id="Path" fill="#FFDD40"></path>
                    <path d="M63.1375913,116.016713 C63.2913096,114.952075 62.729984,113.899864 61.7398167,113.472259 C58.4651095,112.057804 58.5112712,109.072858 58.7291541,107.699368 C58.8117835,107.178786 58.7120743,106.645777 58.4664944,106.179508 L45.4558344,81.4589972 C45.1973292,80.9674131 44.7638714,80.5991853 44.2510155,80.3833118 C41.4822399,79.2160297 41.1960377,77.0697221 41.4116126,75.536974 C41.561638,74.4709546 40.9961578,73.441758 40.0170693,72.987457 C29.069835,67.9049932 30.2977347,56.5852112 31.1771141,52.4122699 C26.8139153,54.8200193 22.6912187,57.6084241 18.8593405,60.7383601 C6.94640449,78.6006291 0,100.039771 0,123.099114 C0,148.000057 8.09998402,171.011071 21.8081464,189.668712 C27.8059291,181.876552 37.5598849,177.651138 47.4587883,178.774693 C51.2532756,179.20552 54.6881636,177.064275 55.8205088,173.567952 C59.5217496,162.140003 67.2612112,152.916358 77.1707317,147.236445 C61.4333034,138.479988 62.3048352,121.779478 63.1375913,116.016713 L63.1375913,116.016713 Z" id="Path" fill="#FFC839"></path>
                    <path d="M83.1296547,59.6515337 C90.4857804,59.6515337 96.4955632,53.8644569 96.8985879,46.5746533 C88.6601524,43.7902437 79.8398267,42.2773006 70.6668544,42.2773006 C70.3715187,42.2773006 70.0784938,42.2856594 69.7836202,42.2884457 C69.4933684,43.4080607 69.3376123,44.5824723 69.3376123,45.7935697 C69.3376123,53.4474456 75.5123949,59.6515337 83.1296547,59.6515337 Z" id="Path" fill="#FFC839"></path>
                    <path d="M168.301903,121.217122 C174.27312,119.854744 178.973308,115.163386 180.338249,109.203385 C180.381522,109.014076 180.546789,108.878528 180.741517,108.878528 C180.936246,108.878528 181.101512,109.014076 181.144785,109.203385 C182.509727,115.163386 187.209914,119.854744 193.181592,121.217122 C193.371257,121.260313 193.50706,121.425269 193.50706,121.619632 C193.50706,121.813995 193.371257,121.97895 193.181592,122.022142 C187.210374,123.38452 182.510187,128.075878 181.145245,134.035879 C181.101972,134.225188 180.936246,134.360736 180.741977,134.360736 C180.547249,134.360736 180.381983,134.225188 180.33871,134.035879 C178.973768,128.075878 174.273581,123.38452 168.302363,122.022142 C168.112698,121.97895 167.976893,121.813535 167.976893,121.619632 C167.976434,121.425729 168.112238,121.260773 168.301903,121.217122 Z" id="Path" fill="#FFDD40"></path>
                    <path d="M175.246397,117.565644 C173.286223,119.25736 170.916923,120.48774 168.305215,121.084598 C168.113887,121.128225 167.976893,121.295308 167.976893,121.491167 C167.976893,121.687025 168.113887,121.854108 168.305215,121.897736 C174.32877,123.274314 179.070155,128.01251 180.44706,134.032604 C180.490712,134.223821 180.657891,134.360736 180.854327,134.360736 C181.050762,134.360736 181.217477,134.223821 181.261129,134.032604 C181.893624,131.266916 183.242666,128.777379 185.09371,126.754282 C183.314181,122.430081 179.715652,119.051291 175.246397,117.565644 L175.246397,117.565644 Z" id="Path" fill="#FFB332"></path>
                    <path d="M6.41743541,142.934913 C12.3886529,141.572535 17.0888403,136.881177 18.4537821,130.921176 C18.4970551,130.731868 18.6623212,130.596319 18.8570499,130.596319 C19.0517785,130.596319 19.2170446,130.731868 19.2603177,130.921176 C20.6252594,136.881177 25.3254468,141.572535 31.2971247,142.934913 C31.4867894,142.978105 31.6225931,143.14306 31.6225931,143.337423 C31.6225931,143.531786 31.4867894,143.696742 31.2971247,143.739934 C25.3259072,145.102311 20.6257198,149.79367 19.260778,155.753671 C19.217505,155.942979 19.0517785,156.078528 18.8575102,156.078528 C18.6627816,156.078528 18.4975154,155.942979 18.4542424,155.753671 C17.0893006,149.79367 12.3891133,145.102311 6.41789577,143.739934 C6.22823101,143.696742 6.09242619,143.531327 6.09242619,143.337423 C6.091967,143.14352 6.22777065,142.978105 6.41743541,142.934913 L6.41743541,142.934913 Z" id="Path" fill="#FFE98F"></path>
                    <path d="M104.840609,20.3550483 C112.169079,18.6828001 117.937476,12.9256989 119.61241,5.61099432 C119.665458,5.37848183 119.868424,5.21226994 120.107371,5.21226994 C120.346318,5.21226994 120.549284,5.37848183 120.602332,5.61099432 C122.277728,12.9256989 128.046124,18.6832605 135.374595,20.3550483 C135.607545,20.4079967 135.774069,20.6105818 135.774069,20.8490798 C135.774069,21.0875777 135.607545,21.2901628 135.374595,21.3431112 C128.046124,23.0153594 122.277728,28.772921 120.602794,36.0871652 C120.549746,36.3196777 120.346318,36.4858896 120.107832,36.4858896 C119.868886,36.4858896 119.665919,36.3196777 119.612871,36.0871652 C117.937476,28.7724606 112.169541,23.0153594 104.84107,21.3431112 C104.60812,21.2901628 104.441592,21.0871173 104.441592,20.8486193 C104.440673,20.6110422 104.607659,20.4084571 104.840609,20.3550483 Z" id="Path" fill="#FFE98F"></path>
                    <path d="M113.342468,15.9263804 C110.943456,17.9999978 108.041732,19.5083784 104.843205,20.239616 C104.609008,20.2929402 104.441592,20.4969634 104.441592,20.737618 C104.441592,20.977809 104.609008,21.1818322 104.843205,21.2356201 C112.210902,22.9197388 118.010176,28.7177068 119.694075,36.0843348 C119.747871,36.3184978 119.951923,36.4858896 120.192149,36.4858896 C120.432375,36.4858896 120.636428,36.3184978 120.690224,36.0843348 C121.425741,32.8672602 122.946862,29.9492649 125.039795,27.5427187 C123.023382,22.1667077 118.735027,17.9081874 113.342468,15.9263804 L113.342468,15.9263804 Z" id="Path" fill="#FFC839"></path>
                    <path d="M153.763553,32.4319018 C150.998924,32.4319018 148.829268,30.1782655 148.829268,27.5083879 C148.829268,25.2468717 150.413233,23.165665 152.797302,22.6831402 C155.808366,22.0777826 158.693196,24.39214 158.693196,27.5083879 C158.693196,30.2153472 156.491518,32.4319018 153.763553,32.4319018 Z" id="Path" fill="#FFB332"></path>
                    <path d="M87.6097834,9.84539877 C84.931609,9.84539877 82.6829268,7.67488295 82.6829268,4.92222579 C82.6829268,2.60107627 84.3136045,0.565435548 86.6481851,0.092677457 C89.7075629,-0.499197133 92.5468549,1.81824449 92.5468549,4.92222579 C92.5463906,7.61509296 90.3441401,9.84539877 87.6097834,9.84539877 Z" id="Path" fill="#FFDD40"></path>
                    <path d="M176.680592,154.920245 C174.005077,154.920245 171.748395,152.74321 171.748395,149.99805 C171.748395,147.643533 173.407474,145.637954 175.718484,145.169924 C178.698604,144.574923 181.612323,146.843248 181.612323,149.99805 C181.612788,152.766379 179.337997,154.920245 176.680592,154.920245 Z" id="Path" fill="#FFB332"></path>
                    <path d="M50.3350449,79.3423313 C48.3319876,79.3423313 46.7086008,77.7112394 46.7086008,75.6986751 L46.7086008,64.4534721 C46.7086008,62.4409078 48.3319876,60.809816 50.3350449,60.809816 C52.3381022,60.809816 53.9614891,62.4409078 53.9614891,64.4534721 L53.9614891,75.6986751 C53.9614891,77.710782 52.3381022,79.3423313 50.3350449,79.3423313 Z" id="Path" fill="#FFC839"></path>
                    <path d="M50.3350449,128.569325 C48.3319876,128.569325 46.7086008,126.933058 46.7086008,124.914108 L46.7086008,113.112886 C46.7086008,111.093936 48.3319876,109.457669 50.3350449,109.457669 C52.3381022,109.457669 53.9614891,111.093936 53.9614891,113.112886 L53.9614891,124.914108 C53.9614891,126.932599 52.3381022,128.569325 50.3350449,128.569325 Z" id="Path" fill="#FFB332"></path>
                    <path d="M32.3599216,87.7281312 L22.8581979,81.5338632 C21.1577346,80.4249352 20.6672252,78.1312272 21.7617921,76.4098991 C22.8568188,74.6881058 25.1231838,74.1915778 26.8236471,75.3000404 L36.3253708,81.4943084 C38.0258341,82.6032365 38.5163435,84.8969444 37.4217765,86.6182725 C36.3299679,88.3344816 34.0654417,88.8398513 32.3599216,87.7281312 L32.3599216,87.7281312 Z" id="Path" fill="#FFB332"></path>
                    <path d="M73.8001139,114.09118 L63.7778252,107.743968 C62.0638767,106.657841 61.5693437,104.410839 62.6728892,102.72536 C63.7773618,101.038513 66.0632445,100.554017 67.7762661,101.638321 L77.7985547,107.985988 C79.5125033,109.072115 80.0070363,111.319117 78.9034907,113.004597 C77.8027261,114.685063 75.5196242,115.180041 73.8001139,114.09118 Z" id="Path" fill="#FFC839"></path>
                    <path d="M88.0699207,123.634105 L83.7647422,120.827646 C82.0743711,119.725667 81.5942873,117.456859 82.6918833,115.759278 C83.7894794,114.062157 86.0501791,113.580616 87.7400922,114.682135 L92.0452706,117.488594 C93.7356418,118.590573 94.2157255,120.859381 93.1181295,122.556962 C92.0241982,124.248104 89.765789,124.739764 88.0699207,123.634105 Z" id="Path" fill="#FFC839"></path>
                    <path d="M199.889602,195.161342 C196.041801,192.61155 191.419734,191.232872 186.641706,191.437206 C182.897264,191.59726 179.721756,188.622655 179.512731,184.881914 C178.598654,168.50706 162.12357,156.562979 146.043003,161.224376 C143.244476,162.035254 140.250768,161.079543 138.467833,158.776058 C129.699886,147.447746 115.970265,140.152147 100.533382,140.152147 C79.2032123,140.152147 61.1380674,154.08099 54.9180947,173.333585 C53.8877387,176.522671 50.7062318,178.405957 47.3747628,178.026348 C37.1934795,176.866303 27.2936638,181.226965 21.1784339,189.058998 C41.7089582,217.491401 75.1385432,236 112.897192,236 C147.882232,236 179.152822,220.111304 199.889602,195.161342 L199.889602,195.161342 Z" id="Path" fill="#425EA5"></path>
                    <path d="M81.9488452,222.726895 C85.3802729,207.722292 95.5363407,195.997301 108.516149,189.990123 C111.155603,188.768722 112.75153,186.071058 112.583828,183.170978 C111.766054,169.052408 122.618727,157.309015 135.774069,155.719584 C127.033788,146.323765 114.558005,140.441718 100.702372,140.441718 C79.4047603,140.441718 61.3671896,154.333949 55.1567109,173.53594 C54.1279276,176.717103 50.9512769,178.595439 47.6248929,178.216828 C37.45915,177.059832 27.5744452,181.409032 21.4685494,189.220019 C35.8733587,209.14611 56.6369978,224.185216 80.7906001,231.366871 C80.9140725,228.506354 81.2877148,225.617775 81.9488452,222.726895 L81.9488452,222.726895 Z" id="Path" fill="#2A428C"></path>
                    <path d="M113.534654,66.3120243 C113.992184,58.1490244 122.234181,52.1951986 130.279038,54.5188784 C131.678866,54.9230965 133.176572,54.4466801 134.068547,53.2984062 C138.455014,47.651308 145.32396,44.0147239 153.046561,44.0147239 C163.717482,44.0147239 172.755423,50.9581714 175.867178,60.5554791 C176.38288,62.1452201 177.974308,63.0842571 179.64099,62.8947942 C185.301245,62.2523678 190.788369,65.0064778 193.695598,69.7586856 C194.684527,71.3750985 196.772727,71.8800263 198.434792,70.962143 C200.404801,69.8741108 202.740003,69.3636647 205.213248,69.6616549 C210.27516,70.2723508 214.341218,74.3655773 214.904473,79.413476 C215.652402,86.1177956 210.403508,91.793865 203.823577,91.793865 L109.773308,91.793865 C103.529945,91.793865 98.2436545,86.7050386 98.3507654,80.4867926 C98.4615697,74.0202214 103.973624,69.3241166 109.968601,69.5793397 C111.841656,69.6593556 113.430314,68.1767624 113.534654,66.3120243 L113.534654,66.3120243 Z" id="Path" fill="#425EA5"></path>
                    <path d="M150.918819,77.7565911 C152.592447,77.6430064 153.891643,76.3314943 154.110484,74.6750894 C154.852883,69.049199 158.863125,64.4115413 164.195649,62.7509977 C166.009631,62.1862933 167.00642,60.2898431 166.514258,58.4619116 C165.930682,56.2946056 165.997627,53.9143858 166.886381,51.5962467 C167.17309,50.8480594 167.545675,50.1513761 167.976893,49.5002186 C163.881238,46.2485698 158.693685,44.3042945 153.048135,44.3042945 C145.324978,44.3042945 138.45641,47.9408435 134.069428,53.5878874 C133.177443,54.7361503 131.679719,55.2125621 130.279874,54.8083478 C122.234919,52.4846904 113.992822,58.4384589 113.535287,66.6013803 C113.430945,68.4661004 111.842268,69.9486793 109.968729,69.869124 C103.973679,69.6139034 98.4615576,74.3095031 98.3507519,80.7764719 C98.2441014,86.9941983 103.529995,92.0834356 109.773895,92.0834356 L130.552733,92.0834356 C134.137297,83.8257836 142.087144,78.3571643 150.918819,77.7565911 L150.918819,77.7565911 Z" id="Path" fill="#2A428C"></path>
                    <ellipse id="Oval" fill="#FFB332" transform="translate(50.272429, 94.487739) rotate(-80.792031) translate(-50.272429, -94.487739) " cx="50.2724293" cy="94.4877395" rx="18.7132636" ry="18.737202"></ellipse>
                    <path d="M50.2966805,75.8674847 C44.5520481,75.8674847 39.413814,78.4475377 35.9743261,82.5059188 C36.4399699,82.4713892 36.9088441,82.4479091 37.3837177,82.4479091 C47.7395622,82.4479091 56.134534,90.8229528 56.134534,101.154215 C56.134534,105.75448 54.4671692,109.963871 51.7060722,113.222086 C61.4024469,112.502489 69.0474968,104.431766 69.0474968,94.5737902 C69.0474968,84.2429888 60.652525,75.8674847 50.2966805,75.8674847 Z" id="Path" fill="#FF9D33"></path>
                    <path d="M50.3350449,116.986503 C37.9375713,116.986503 27.8510911,106.919074 27.8510911,94.5450162 C27.8510911,82.1704967 37.9371086,72.1030675 50.3350449,72.1030675 C62.7329812,72.1030675 72.8189987,82.1704967 72.8189987,94.5450162 C72.8189987,106.919536 62.7325186,116.986503 50.3350449,116.986503 L50.3350449,116.986503 Z M50.3350449,79.4611894 C42.0020513,79.4611894 35.2226745,86.2282234 35.2226745,94.545478 C35.2226745,102.862733 42.0020513,109.629305 50.3350449,109.629305 C58.6680386,109.629305 65.4474154,102.862733 65.4474154,94.545478 C65.4474154,86.2277616 58.6680386,79.4611894 50.3350449,79.4611894 Z" id="Shape" fill="#FFC839"></path>
                    <path d="M61.576087,113.617337 C58.3125261,112.200027 58.3585306,109.209056 58.575672,107.832794 C58.6147758,107.583277 58.6101754,107.330532 58.5706115,107.083783 C56.1783763,108.696186 53.3012534,109.638446 50.2079093,109.638446 C41.9220346,109.638446 35.1809918,102.880281 35.1809918,94.5733603 C35.1809918,88.293474 39.0343307,82.900963 44.4946075,80.6419381 C44.3837366,80.5736785 44.2678052,80.5123371 44.1468133,80.4611423 C41.387462,79.2915043 41.102234,77.1408646 41.3170751,75.6050229 C41.3902223,75.0833901 41.2903925,74.5714429 41.0585297,74.1300613 C33.2814651,77.6426652 27.8510911,85.4814539 27.8510911,94.5728991 C27.8510911,106.931582 37.8805372,116.986503 50.2079093,116.986503 C54.446766,116.986503 58.4137361,115.797494 61.7946085,113.735407 C61.7228414,113.694359 61.6529145,113.650544 61.576087,113.617337 L61.576087,113.617337 Z" id="Path" fill="#FFB332"></path>
                </g>
            </g>
        </g>
    </g>
</svg>