<?xml version="1.0" encoding="UTF-8"?>
<svg width="59px" height="47px" viewBox="0 0 59 47" version="1.1" xmlns="http://www.w3.org/2000/svg" xmlns:xlink="http://www.w3.org/1999/xlink">
    <!-- Generator: Sketch 59.1 (86144) - https://sketch.com -->
    <title>Path</title>
    <desc>Created with Sketch.</desc>
    <g id="Page-1" stroke="none" stroke-width="1" fill="none" fill-rule="evenodd">
        <g id="Artboard" transform="translate(-207.000000, -230.000000)" fill="#000000" fill-rule="nonzero">
            <g id="iconmonstr-twitter-1" transform="translate(207.000000, 230.000000)">
                <path d="M59,5.56414069 C56.8292917,6.50876743 54.4963333,7.14494463 52.0478333,7.43170632 C54.5479583,5.9641612 56.4679167,3.63874077 57.370125,0.867514356 C55.03225,2.22662018 52.4411667,3.21462264 49.6829167,3.74718007 C47.4777917,1.44103774 44.3286667,0 40.8476667,0 C33.032625,0 27.2899583,7.14735439 29.0550417,14.5670119 C18.998,14.0730107 10.0791667,9.34987695 4.107875,2.17119565 C0.936625,7.50399918 2.46325,14.4802605 7.85191667,18.0129717 C5.8705,17.9503179 4.00216667,17.4177605 2.37229167,16.5285582 C2.23954167,22.0252256 6.25891667,27.1676579 12.08025,28.3122949 C10.376625,28.7653302 8.51075,28.8713597 6.61291667,28.5147149 C8.15183333,33.2282096 12.6210833,36.6573011 17.92125,36.7536916 C12.8325,40.6647354 6.42116667,42.411813 0,41.6696062 C5.35670833,45.0360439 11.7213333,47 18.5555,47 C41.0295833,47 53.726875,28.3942268 52.959875,11.7066243 C55.3247917,10.0318396 57.3775,7.94257588 59,5.56414069 Z" id="Path"></path>
            </g>
        </g>
    </g>
</svg>