<?xml version="1.0" encoding="UTF-8"?>
<svg width="30px" height="24px" viewBox="0 0 30 24" version="1.1" xmlns="http://www.w3.org/2000/svg" xmlns:xlink="http://www.w3.org/1999/xlink">
    <!-- Generator: Sketch 59.1 (86144) - https://sketch.com -->
    <title>icons8-refresh</title>
    <desc>Created with Sketch.</desc>
    <g id="Page-1" stroke="none" stroke-width="1" fill="none" fill-rule="evenodd">
        <g id="icons8-refresh" fill="#FFFFFF" fill-rule="nonzero">
            <path d="M15,0 C12.031398,0 9.3028202,1.0834384 7.2070312,2.875 C6.92097953,3.10272244 6.78199631,3.46839422 6.8445808,3.82862504 C6.90716529,4.18885587 7.16134107,4.4862224 7.50743861,4.60411878 C7.85353616,4.72201516 8.23638506,4.64164787 8.5058594,4.3945312 C10.25407,2.9000929 12.516602,2 15,2 C20.19656,2 24.450989,5.9379267 24.951172,11 L22,11 L26,17 L30,11 L26.949219,11 C26.437925,4.8516588 21.277839,0 15,0 Z M4,7 L0,13 L3.0507812,13 C3.562075,19.148341 8.7221607,24 15,24 C17.968602,24 20.69718,22.916562 22.792969,21.125 C23.0790223,20.8972781 23.218007,20.5316056 23.1554228,20.1713738 C23.0928386,19.8111419 22.8386621,19.5137745 22.4925635,19.3958783 C22.1464649,19.277982 21.7636151,19.3583506 21.494141,19.605469 C19.74593,21.099907 17.483398,22 15,22 C9.80344,22 5.5490109,18.062074 5.0488281,13 L8,13 L4,7 Z" id="Shape"></path>
        </g>
    </g>
</svg>